# xmcd
#
# Track frame offsets:
#	150
#	16388
#	32730
#	46538
#	61415
#	73875
#	93705
#	112718
#	128173
#	147323
#	166103
#	185978
#	204793
#	223805
#	242375
#	257323
#	275273
#
# Disc length: 3913 seconds
#
# Revision: 0
# Processed by: cddbd v1.5.1PL0 Copyright (c) Steve Scherf et al.
# Submitted via: MusicManager 7.0.6.0 
#
DISCID=ea0f4711
DTITLE=Various Artist - Demontage Volume 13
DYEAR=2004
DGENRE=Rock
TTITLE0=Goslink - Harmony #2
TTITLE1=The Jack Stafford Foundation - The Hard Way
TTITLE2=Bad Cheetah - Radiant Boy
TTITLE3=Board Of Directors - What Is To Be Done
TTITLE4=Impossible Situations - Cum
TTITLE5=Mormo - Hero Never Rests
TTITLE6=Dez - Limitations
TTITLE7=Aux Raus - Fall
TTITLE8=Next Waste Dimension - Zephyr
TTITLE9=Image Treason - Intro/Late Days Of December
TTITLE10=Mama Loo - Underground
TTITLE11=Jetsetready - When It Stops Making Sense (rough mix)
TTITLE12=Vertigo - Back To Mine
TTITLE13=Headmode - Reservoir
TTITLE14=Skum - Wij Woorden
TTITLE15=Intersection - Ayaouw Fnigh (Struck By You)
TTITLE16=Circumflex^ - Knock Knock
EXTD=
EXTT0=
EXTT1=
EXTT2=
EXTT3=
EXTT4=
EXTT5=
EXTT6=
EXTT7=
EXTT8=
EXTT9=
EXTT10=
EXTT11=
EXTT12=
EXTT13=
EXTT14=
EXTT15=
EXTT16=
PLAYORDER=
